{"title":"Star Wars Episode VII (2015) 1080p BluRay AAC 7.1 H.265 [Kyle-E]","uid":14546630,"size":7436632093,"categoryP":"video","categoryS":"hd___movies","magnet":"?xt=urn:btih:371fac21f315a4a7178fc1ee977282f684e16982&amp;dn=Star+Wars+Episode+VII+%282015%29+1080p+BluRay+AAC+7.1+H.265+%5BKyle-E%5D&amp;tr=udp%3A%2F%2Ftracker.leechers-paradise.org%3A6969&amp;tr=udp%3A%2F%2Fzer0day.ch%3A1337&amp;tr=udp%3A%2F%2Fopen.demonii.com%3A1337&amp;tr=udp%3A%2F%2Ftracker.coppersurfer.tk%3A6969&amp;tr=udp%3A%2F%2Fexodus.desync.com%3A6969","seeders":4,"leechers":0,"uploader":"Kyle-E","files":3,"time":1462587326,"description":"\n Star Wars Episode VII - The Force Awakens (2015) 1080p BluRay AAC 7.1 H.265[Kyle-E]\r\n ==================================================================================\r\n 12A | 2h 16min | Action, Adventure, Fantasy | 17 December 2015 (UK) \r\n ==================================================================================\r\n Three decades after the defeat of the Galactic Empire,  a new threat arises. \r\n The First Order attempts to rule the galaxy and only a ragtag group of heroes can\r\n stop them, along with the help of the Resistance. \r\n ==================================================================================\r\n IMDb: http://www.imdb.com/title/tt2488496/\r\n\r\n\r\nAudio    : AAC 7.1 1204 Kbps\r\nVideo    : 1920x800p HEVC x265 5970 Kbps\r\nSubtitles: English, English (SDH), Danish, Dutch, French, Japanese, Norwegian,\r\n           Spanish, Swedish\r\n\r\nScreenshots: \nhttps://yuq.me/users/39/159/ijItTlfoLD.jpg \nhttps://yuq.me/users/39/159/ZfwFkVjbSC.jpg \nhttps://yuq.me/users/39/159/I5swkOoWfg.jpg \nhttps://yuq.me/users/39/159/mf3wPNJIcb.jpg \nhttps://yuq.me/users/39/159/nzx0WvckYB.jpg \nhttps://yuq.me/users/39/159/g5c1mSM7YQ.jpg \nhttps://yuq.me/users/39/159/XNDcyaYSng.jpg \nhttps://yuq.me/users/39/159/KwOa0phZfW.jpg \nhttps://yuq.me/users/39/159/vdAGywrXzg.jpg \nhttps://yuq.me/users/39/159/c9gFLzyDGj.jpg\r\n\r\n\r\n\r\n\r\nGeneral:\r\nUnique ID                                : 210897022646756117289007849102584335340\r\n                                           (0x9EA94A0318B97998A66441B2B65C4BEC)\r\nFormat                                   : Matroska\r\nFormat version                           : Version 4 / Version 2\r\nFile size                                : 6.93 GiB\r\nDuration                                 : 2h 18mn\r\nOverall bit rate                         : 7 179 Kbps\r\nEncoded date                             : UTC 2016-05-06 14:01:54\r\nWriting application                      : mkvmerge v9.1.0 ('Little Earthquakes') 64bit\r\nWriting library                          : libebml v1.3.3 + libmatroska v1.4.4\r\nCover                                    : Yes\r\nAttachments                              : cover.jpg / cover_land.jpg\r\n\r\nVideo:\r\nID                                       : 1\r\nFormat                                   : HEVC\r\nFormat/Info                              : High Efficiency Video Coding\r\nFormat profile                           :   @Main\r\nCodec ID                                 : V_MPEGH/ISO/HEVC\r\nDuration                                 : 2h 18mn\r\nBit rate                                 : 5 970 Kbps\r\nWidth                                    : 1 920 pixels\r\nHeight                                   : 800 pixels\r\nDisplay aspect ratio                     : 2.40:1\r\nFrame rate mode                          : Constant\r\nFrame rate                               : 23.976 (24000/1001) fps\r\nColor space                              : YUV\r\nChroma subsampling                       : 4:2:0\r\nBit depth                                : 8 bits\r\nBits/(Pixel*Frame)                       : 0.162\r\nStream size                              : 5.76 GiB (83%)\r\nWriting library                          : x265 1.9+5-20f14d78dbad:[Windows][GCC \r\n                                           5.3.0][64 bit] 8bit\r\nDefault                                  : Yes\r\nForced                                   : No\r\n\r\nAudio:\r\nID                                       : 2\r\nFormat                                   : AAC\r\nFormat/Info                              : Advanced Audio Codec\r\nFormat profile                           : LC\r\nCodec ID                                 : A_AAC\r\nDuration                                 : 2h 18mn\r\nBit rate                                 : 1 204 Kbps\r\nChannel(s)                               : 7 channels\r\nChannel(s)_Original                      : 8 channels\r\nChannel positions                        : Front: L C R, Side: L R, Back: L R, LFE\r\nSampling rate                            : 48.0 KHz\r\nFrame rate                               : 46.875 fps (1024 spf)\r\nCompression mode                         : Lossy\r\nDelay relative to video                  : 9ms\r\nStream size                              : 1.16 GiB (17%)\r\nDefault                                  : Yes\r\nForced                                   : No","torrent":{"xt":"urn:btih:371fac21f315a4a7178fc1ee977282f684e16982","amp;dn":"Star+Wars+Episode+VII+%282015%29+1080p+BluRay+AAC+7.1+H.265+%5BKyle-E%5D","amp;tr":["udp%3A%2F%2Ftracker.leechers-paradise.org%3A6969","udp%3A%2F%2Fzer0day.ch%3A1337","udp%3A%2F%2Fopen.demonii.com%3A1337","udp%3A%2F%2Ftracker.coppersurfer.tk%3A6969","udp%3A%2F%2Fexodus.desync.com%3A6969"],"infoHash":"371fac21f315a4a7178fc1ee977282f684e16982","infoHashBuffer":{"type":"Buffer","data":[55,31,172,33,243,21,164,167,23,143,193,238,151,114,130,246,132,225,105,130]},"announce":[],"urlList":[]}}